<mxfile host="app.diagrams.net" agent="Mozilla/5.0 (Windows NT 10.0; Win64; x64) AppleWebKit/537.36 (KHTML, like Gecko) Chrome/131.0.0.0 Safari/537.36" version="24.8.6">
  <diagram id="C5RBs43oDa-KdzZeNtuy" name="Page-1">
    <mxGraphModel dx="949" dy="545" grid="1" gridSize="10" guides="1" tooltips="1" connect="1" arrows="1" fold="1" page="1" pageScale="1" pageWidth="827" pageHeight="1169" math="0" shadow="0">
      <root>
        <mxCell id="WIyWlLk6GJQsqaUBKTNV-0" />
        <mxCell id="WIyWlLk6GJQsqaUBKTNV-1" parent="WIyWlLk6GJQsqaUBKTNV-0" />
        <mxCell id="U99DE3JOCNoCkjlB8cg_-17" style="edgeStyle=orthogonalEdgeStyle;rounded=0;orthogonalLoop=1;jettySize=auto;html=1;exitX=0;exitY=0.25;exitDx=0;exitDy=0;entryX=0.5;entryY=1;entryDx=0;entryDy=0;" parent="WIyWlLk6GJQsqaUBKTNV-1" source="U99DE3JOCNoCkjlB8cg_-0" target="U99DE3JOCNoCkjlB8cg_-1" edge="1">
          <mxGeometry relative="1" as="geometry" />
        </mxCell>
        <mxCell id="U99DE3JOCNoCkjlB8cg_-18" style="edgeStyle=orthogonalEdgeStyle;rounded=0;orthogonalLoop=1;jettySize=auto;html=1;entryX=0.5;entryY=0;entryDx=0;entryDy=0;" parent="WIyWlLk6GJQsqaUBKTNV-1" source="U99DE3JOCNoCkjlB8cg_-0" target="U99DE3JOCNoCkjlB8cg_-3" edge="1">
          <mxGeometry relative="1" as="geometry" />
        </mxCell>
        <mxCell id="U99DE3JOCNoCkjlB8cg_-0" value="ESP32 Microprocessor&lt;br&gt;with WROOM &lt;br&gt;Module" style="rounded=1;whiteSpace=wrap;html=1;" parent="WIyWlLk6GJQsqaUBKTNV-1" vertex="1">
          <mxGeometry x="368" y="509" width="120" height="230" as="geometry" />
        </mxCell>
        <mxCell id="U99DE3JOCNoCkjlB8cg_-1" value="&lt;div&gt;&lt;span style=&quot;background-color: initial;&quot;&gt;OLED&lt;/span&gt;&lt;/div&gt;Display" style="rounded=0;whiteSpace=wrap;html=1;" parent="WIyWlLk6GJQsqaUBKTNV-1" vertex="1">
          <mxGeometry x="164" y="469" width="120" height="60" as="geometry" />
        </mxCell>
        <mxCell id="U99DE3JOCNoCkjlB8cg_-3" value="Buzzer" style="ellipse;whiteSpace=wrap;html=1;" parent="WIyWlLk6GJQsqaUBKTNV-1" vertex="1">
          <mxGeometry x="164" y="649" width="120" height="80" as="geometry" />
        </mxCell>
        <mxCell id="U99DE3JOCNoCkjlB8cg_-14" style="edgeStyle=orthogonalEdgeStyle;rounded=0;orthogonalLoop=1;jettySize=auto;html=1;exitX=0.5;exitY=1;exitDx=0;exitDy=0;entryX=0.5;entryY=0;entryDx=0;entryDy=0;" parent="WIyWlLk6GJQsqaUBKTNV-1" source="U99DE3JOCNoCkjlB8cg_-5" target="U99DE3JOCNoCkjlB8cg_-0" edge="1">
          <mxGeometry relative="1" as="geometry" />
        </mxCell>
        <mxCell id="U99DE3JOCNoCkjlB8cg_-5" value="Ultrasonic Distance&lt;br&gt;Sensor" style="whiteSpace=wrap;html=1;aspect=fixed;" parent="WIyWlLk6GJQsqaUBKTNV-1" vertex="1">
          <mxGeometry x="388" y="389" width="80" height="80" as="geometry" />
        </mxCell>
        <mxCell id="U99DE3JOCNoCkjlB8cg_-11" style="edgeStyle=orthogonalEdgeStyle;rounded=0;orthogonalLoop=1;jettySize=auto;html=1;entryX=1;entryY=0.25;entryDx=0;entryDy=0;" parent="WIyWlLk6GJQsqaUBKTNV-1" source="U99DE3JOCNoCkjlB8cg_-6" target="U99DE3JOCNoCkjlB8cg_-0" edge="1">
          <mxGeometry relative="1" as="geometry" />
        </mxCell>
        <mxCell id="U99DE3JOCNoCkjlB8cg_-6" value="IR Sensor" style="whiteSpace=wrap;html=1;aspect=fixed;" parent="WIyWlLk6GJQsqaUBKTNV-1" vertex="1">
          <mxGeometry x="568" y="399" width="80" height="80" as="geometry" />
        </mxCell>
        <mxCell id="U99DE3JOCNoCkjlB8cg_-13" style="edgeStyle=orthogonalEdgeStyle;rounded=0;orthogonalLoop=1;jettySize=auto;html=1;exitX=0.5;exitY=1;exitDx=0;exitDy=0;entryX=1;entryY=0.75;entryDx=0;entryDy=0;" parent="WIyWlLk6GJQsqaUBKTNV-1" source="U99DE3JOCNoCkjlB8cg_-7" target="U99DE3JOCNoCkjlB8cg_-0" edge="1">
          <mxGeometry relative="1" as="geometry" />
        </mxCell>
        <mxCell id="U99DE3JOCNoCkjlB8cg_-7" value="Real Time&lt;br&gt;Clock" style="whiteSpace=wrap;html=1;aspect=fixed;" parent="WIyWlLk6GJQsqaUBKTNV-1" vertex="1">
          <mxGeometry x="568" y="509" width="80" height="80" as="geometry" />
        </mxCell>
        <mxCell id="U99DE3JOCNoCkjlB8cg_-19" style="edgeStyle=orthogonalEdgeStyle;rounded=0;orthogonalLoop=1;jettySize=auto;html=1;entryX=0.5;entryY=1;entryDx=0;entryDy=0;" parent="WIyWlLk6GJQsqaUBKTNV-1" source="U99DE3JOCNoCkjlB8cg_-8" target="U99DE3JOCNoCkjlB8cg_-0" edge="1">
          <mxGeometry relative="1" as="geometry" />
        </mxCell>
        <mxCell id="U99DE3JOCNoCkjlB8cg_-8" value="Gyro (3-axis)&lt;br&gt;Sensor" style="shape=process;whiteSpace=wrap;html=1;backgroundOutline=1;" parent="WIyWlLk6GJQsqaUBKTNV-1" vertex="1">
          <mxGeometry x="368" y="779" width="120" height="60" as="geometry" />
        </mxCell>
        <mxCell id="HUk4jSLhMYDcO2J2m5Fl-0" value="IR Sensor" style="swimlane;fontStyle=0;childLayout=stackLayout;horizontal=1;startSize=30;horizontalStack=0;resizeParent=1;resizeParentMax=0;resizeLast=0;collapsible=1;marginBottom=0;whiteSpace=wrap;html=1;" vertex="1" parent="WIyWlLk6GJQsqaUBKTNV-1">
          <mxGeometry x="24" y="839" width="140" height="60" as="geometry" />
        </mxCell>
        <mxCell id="HUk4jSLhMYDcO2J2m5Fl-1" value="OUT" style="text;strokeColor=none;fillColor=none;align=left;verticalAlign=middle;spacingLeft=4;spacingRight=4;overflow=hidden;points=[[0,0.5],[1,0.5]];portConstraint=eastwest;rotatable=0;whiteSpace=wrap;html=1;" vertex="1" parent="HUk4jSLhMYDcO2J2m5Fl-0">
          <mxGeometry y="30" width="140" height="30" as="geometry" />
        </mxCell>
        <mxCell id="HUk4jSLhMYDcO2J2m5Fl-6" value="Real Time Clock" style="swimlane;fontStyle=0;childLayout=stackLayout;horizontal=1;startSize=30;horizontalStack=0;resizeParent=1;resizeParentMax=0;resizeLast=0;collapsible=1;marginBottom=0;whiteSpace=wrap;html=1;" vertex="1" parent="WIyWlLk6GJQsqaUBKTNV-1">
          <mxGeometry x="664" y="869" width="140" height="90" as="geometry" />
        </mxCell>
        <mxCell id="HUk4jSLhMYDcO2J2m5Fl-8" value="SDA" style="text;strokeColor=none;fillColor=none;align=left;verticalAlign=middle;spacingLeft=4;spacingRight=4;overflow=hidden;points=[[0,0.5],[1,0.5]];portConstraint=eastwest;rotatable=0;whiteSpace=wrap;html=1;" vertex="1" parent="HUk4jSLhMYDcO2J2m5Fl-6">
          <mxGeometry y="30" width="140" height="30" as="geometry" />
        </mxCell>
        <mxCell id="HUk4jSLhMYDcO2J2m5Fl-7" value="SCL" style="text;strokeColor=none;fillColor=none;align=left;verticalAlign=middle;spacingLeft=4;spacingRight=4;overflow=hidden;points=[[0,0.5],[1,0.5]];portConstraint=eastwest;rotatable=0;whiteSpace=wrap;html=1;" vertex="1" parent="HUk4jSLhMYDcO2J2m5Fl-6">
          <mxGeometry y="60" width="140" height="30" as="geometry" />
        </mxCell>
        <mxCell id="HUk4jSLhMYDcO2J2m5Fl-10" value="Buzzer" style="swimlane;fontStyle=0;childLayout=stackLayout;horizontal=1;startSize=30;horizontalStack=0;resizeParent=1;resizeParentMax=0;resizeLast=0;collapsible=1;marginBottom=0;whiteSpace=wrap;html=1;" vertex="1" parent="WIyWlLk6GJQsqaUBKTNV-1">
          <mxGeometry x="24" y="919" width="140" height="60" as="geometry" />
        </mxCell>
        <mxCell id="HUk4jSLhMYDcO2J2m5Fl-11" value="I/O Ports" style="text;strokeColor=none;fillColor=none;align=left;verticalAlign=middle;spacingLeft=4;spacingRight=4;overflow=hidden;points=[[0,0.5],[1,0.5]];portConstraint=eastwest;rotatable=0;whiteSpace=wrap;html=1;" vertex="1" parent="HUk4jSLhMYDcO2J2m5Fl-10">
          <mxGeometry y="30" width="140" height="30" as="geometry" />
        </mxCell>
        <mxCell id="HUk4jSLhMYDcO2J2m5Fl-14" value="Ultrasonic Distance Sensor" style="swimlane;fontStyle=0;childLayout=stackLayout;horizontal=1;startSize=30;horizontalStack=0;resizeParent=1;resizeParentMax=0;resizeLast=0;collapsible=1;marginBottom=0;whiteSpace=wrap;html=1;" vertex="1" parent="WIyWlLk6GJQsqaUBKTNV-1">
          <mxGeometry x="24" y="999" width="140" height="90" as="geometry" />
        </mxCell>
        <mxCell id="HUk4jSLhMYDcO2J2m5Fl-15" value="Trigger" style="text;strokeColor=none;fillColor=none;align=left;verticalAlign=middle;spacingLeft=4;spacingRight=4;overflow=hidden;points=[[0,0.5],[1,0.5]];portConstraint=eastwest;rotatable=0;whiteSpace=wrap;html=1;" vertex="1" parent="HUk4jSLhMYDcO2J2m5Fl-14">
          <mxGeometry y="30" width="140" height="30" as="geometry" />
        </mxCell>
        <mxCell id="HUk4jSLhMYDcO2J2m5Fl-17" value="Echo" style="text;strokeColor=none;fillColor=none;align=left;verticalAlign=middle;spacingLeft=4;spacingRight=4;overflow=hidden;points=[[0,0.5],[1,0.5]];portConstraint=eastwest;rotatable=0;whiteSpace=wrap;html=1;" vertex="1" parent="HUk4jSLhMYDcO2J2m5Fl-14">
          <mxGeometry y="60" width="140" height="30" as="geometry" />
        </mxCell>
        <mxCell id="HUk4jSLhMYDcO2J2m5Fl-18" value="Gyro (3-axis)" style="swimlane;fontStyle=0;childLayout=stackLayout;horizontal=1;startSize=30;horizontalStack=0;resizeParent=1;resizeParentMax=0;resizeLast=0;collapsible=1;marginBottom=0;whiteSpace=wrap;html=1;" vertex="1" parent="WIyWlLk6GJQsqaUBKTNV-1">
          <mxGeometry x="654" y="1019" width="140" height="150" as="geometry" />
        </mxCell>
        <mxCell id="HUk4jSLhMYDcO2J2m5Fl-19" value="CS" style="text;strokeColor=none;fillColor=none;align=left;verticalAlign=middle;spacingLeft=4;spacingRight=4;overflow=hidden;points=[[0,0.5],[1,0.5]];portConstraint=eastwest;rotatable=0;whiteSpace=wrap;html=1;" vertex="1" parent="HUk4jSLhMYDcO2J2m5Fl-18">
          <mxGeometry y="30" width="140" height="30" as="geometry" />
        </mxCell>
        <mxCell id="HUk4jSLhMYDcO2J2m5Fl-20" value="SPO" style="text;strokeColor=none;fillColor=none;align=left;verticalAlign=middle;spacingLeft=4;spacingRight=4;overflow=hidden;points=[[0,0.5],[1,0.5]];portConstraint=eastwest;rotatable=0;whiteSpace=wrap;html=1;" vertex="1" parent="HUk4jSLhMYDcO2J2m5Fl-18">
          <mxGeometry y="60" width="140" height="30" as="geometry" />
        </mxCell>
        <mxCell id="HUk4jSLhMYDcO2J2m5Fl-21" value="SDA" style="text;strokeColor=none;fillColor=none;align=left;verticalAlign=middle;spacingLeft=4;spacingRight=4;overflow=hidden;points=[[0,0.5],[1,0.5]];portConstraint=eastwest;rotatable=0;whiteSpace=wrap;html=1;" vertex="1" parent="HUk4jSLhMYDcO2J2m5Fl-18">
          <mxGeometry y="90" width="140" height="30" as="geometry" />
        </mxCell>
        <mxCell id="HUk4jSLhMYDcO2J2m5Fl-22" value="SCl" style="text;strokeColor=none;fillColor=none;align=left;verticalAlign=middle;spacingLeft=4;spacingRight=4;overflow=hidden;points=[[0,0.5],[1,0.5]];portConstraint=eastwest;rotatable=0;whiteSpace=wrap;html=1;" vertex="1" parent="HUk4jSLhMYDcO2J2m5Fl-18">
          <mxGeometry y="120" width="140" height="30" as="geometry" />
        </mxCell>
        <mxCell id="HUk4jSLhMYDcO2J2m5Fl-25" value="ESP 32 Microprocessor" style="swimlane;fontStyle=0;childLayout=stackLayout;horizontal=1;startSize=30;horizontalStack=0;resizeParent=1;resizeParentMax=0;resizeLast=0;collapsible=1;marginBottom=0;whiteSpace=wrap;html=1;" vertex="1" parent="WIyWlLk6GJQsqaUBKTNV-1">
          <mxGeometry x="254" y="849" width="140" height="150" as="geometry" />
        </mxCell>
        <mxCell id="HUk4jSLhMYDcO2J2m5Fl-26" value="VP" style="text;strokeColor=none;fillColor=none;align=left;verticalAlign=middle;spacingLeft=4;spacingRight=4;overflow=hidden;points=[[0,0.5],[1,0.5]];portConstraint=eastwest;rotatable=0;whiteSpace=wrap;html=1;" vertex="1" parent="HUk4jSLhMYDcO2J2m5Fl-25">
          <mxGeometry y="30" width="140" height="30" as="geometry" />
        </mxCell>
        <mxCell id="HUk4jSLhMYDcO2J2m5Fl-29" value="D25" style="text;strokeColor=none;fillColor=none;align=left;verticalAlign=middle;spacingLeft=4;spacingRight=4;overflow=hidden;points=[[0,0.5],[1,0.5]];portConstraint=eastwest;rotatable=0;whiteSpace=wrap;html=1;" vertex="1" parent="HUk4jSLhMYDcO2J2m5Fl-25">
          <mxGeometry y="60" width="140" height="30" as="geometry" />
        </mxCell>
        <mxCell id="HUk4jSLhMYDcO2J2m5Fl-30" value="D32" style="text;strokeColor=none;fillColor=none;align=left;verticalAlign=middle;spacingLeft=4;spacingRight=4;overflow=hidden;points=[[0,0.5],[1,0.5]];portConstraint=eastwest;rotatable=0;whiteSpace=wrap;html=1;" vertex="1" parent="HUk4jSLhMYDcO2J2m5Fl-25">
          <mxGeometry y="90" width="140" height="30" as="geometry" />
        </mxCell>
        <mxCell id="HUk4jSLhMYDcO2J2m5Fl-31" value="D33" style="text;strokeColor=none;fillColor=none;align=left;verticalAlign=middle;spacingLeft=4;spacingRight=4;overflow=hidden;points=[[0,0.5],[1,0.5]];portConstraint=eastwest;rotatable=0;whiteSpace=wrap;html=1;" vertex="1" parent="HUk4jSLhMYDcO2J2m5Fl-25">
          <mxGeometry y="120" width="140" height="30" as="geometry" />
        </mxCell>
        <mxCell id="HUk4jSLhMYDcO2J2m5Fl-36" value="ESP 32 Microprocessor" style="swimlane;fontStyle=0;childLayout=stackLayout;horizontal=1;startSize=30;horizontalStack=0;resizeParent=1;resizeParentMax=0;resizeLast=0;collapsible=1;marginBottom=0;whiteSpace=wrap;html=1;" vertex="1" parent="WIyWlLk6GJQsqaUBKTNV-1">
          <mxGeometry x="394" y="849" width="140" height="150" as="geometry">
            <mxRectangle x="540" y="740" width="60" height="30" as="alternateBounds" />
          </mxGeometry>
        </mxCell>
        <mxCell id="HUk4jSLhMYDcO2J2m5Fl-41" value="D23" style="text;strokeColor=none;fillColor=none;align=left;verticalAlign=middle;spacingLeft=4;spacingRight=4;overflow=hidden;points=[[0,0.5],[1,0.5]];portConstraint=eastwest;rotatable=0;whiteSpace=wrap;html=1;" vertex="1" parent="HUk4jSLhMYDcO2J2m5Fl-36">
          <mxGeometry y="30" width="140" height="30" as="geometry" />
        </mxCell>
        <mxCell id="HUk4jSLhMYDcO2J2m5Fl-33" value="D19" style="text;strokeColor=none;fillColor=none;align=left;verticalAlign=middle;spacingLeft=4;spacingRight=4;overflow=hidden;points=[[0,0.5],[1,0.5]];portConstraint=eastwest;rotatable=0;whiteSpace=wrap;html=1;" vertex="1" parent="HUk4jSLhMYDcO2J2m5Fl-36">
          <mxGeometry y="60" width="140" height="30" as="geometry" />
        </mxCell>
        <mxCell id="HUk4jSLhMYDcO2J2m5Fl-34" value="D10" style="text;strokeColor=none;fillColor=none;align=left;verticalAlign=middle;spacingLeft=4;spacingRight=4;overflow=hidden;points=[[0,0.5],[1,0.5]];portConstraint=eastwest;rotatable=0;whiteSpace=wrap;html=1;" vertex="1" parent="HUk4jSLhMYDcO2J2m5Fl-36">
          <mxGeometry y="90" width="140" height="30" as="geometry" />
        </mxCell>
        <mxCell id="HUk4jSLhMYDcO2J2m5Fl-32" value="D5" style="text;strokeColor=none;fillColor=none;align=left;verticalAlign=middle;spacingLeft=4;spacingRight=4;overflow=hidden;points=[[0,0.5],[1,0.5]];portConstraint=eastwest;rotatable=0;whiteSpace=wrap;html=1;" vertex="1" parent="HUk4jSLhMYDcO2J2m5Fl-36">
          <mxGeometry y="120" width="140" height="30" as="geometry" />
        </mxCell>
        <mxCell id="HUk4jSLhMYDcO2J2m5Fl-40" style="edgeStyle=orthogonalEdgeStyle;rounded=0;orthogonalLoop=1;jettySize=auto;html=1;exitX=1;exitY=0.5;exitDx=0;exitDy=0;entryX=0;entryY=0.5;entryDx=0;entryDy=0;" edge="1" parent="WIyWlLk6GJQsqaUBKTNV-1" source="HUk4jSLhMYDcO2J2m5Fl-1" target="HUk4jSLhMYDcO2J2m5Fl-26">
          <mxGeometry relative="1" as="geometry" />
        </mxCell>
        <mxCell id="HUk4jSLhMYDcO2J2m5Fl-51" style="edgeStyle=orthogonalEdgeStyle;rounded=0;orthogonalLoop=1;jettySize=auto;html=1;entryX=1;entryY=0.5;entryDx=0;entryDy=0;" edge="1" parent="WIyWlLk6GJQsqaUBKTNV-1" source="HUk4jSLhMYDcO2J2m5Fl-47" target="HUk4jSLhMYDcO2J2m5Fl-41">
          <mxGeometry relative="1" as="geometry" />
        </mxCell>
        <mxCell id="HUk4jSLhMYDcO2J2m5Fl-47" value="" style="verticalLabelPosition=bottom;verticalAlign=top;html=1;shape=mxgraph.flowchart.summing_function;" vertex="1" parent="WIyWlLk6GJQsqaUBKTNV-1">
          <mxGeometry x="574" y="879" width="30" height="30" as="geometry" />
        </mxCell>
        <mxCell id="HUk4jSLhMYDcO2J2m5Fl-50" style="edgeStyle=orthogonalEdgeStyle;rounded=0;orthogonalLoop=1;jettySize=auto;html=1;entryX=1;entryY=0.5;entryDx=0;entryDy=0;" edge="1" parent="WIyWlLk6GJQsqaUBKTNV-1" source="HUk4jSLhMYDcO2J2m5Fl-49" target="HUk4jSLhMYDcO2J2m5Fl-34">
          <mxGeometry relative="1" as="geometry" />
        </mxCell>
        <mxCell id="HUk4jSLhMYDcO2J2m5Fl-49" value="" style="verticalLabelPosition=bottom;verticalAlign=top;html=1;shape=mxgraph.flowchart.summing_function;" vertex="1" parent="WIyWlLk6GJQsqaUBKTNV-1">
          <mxGeometry x="574" y="939" width="30" height="30" as="geometry" />
        </mxCell>
        <mxCell id="HUk4jSLhMYDcO2J2m5Fl-52" style="edgeStyle=orthogonalEdgeStyle;rounded=0;orthogonalLoop=1;jettySize=auto;html=1;exitX=0;exitY=0.5;exitDx=0;exitDy=0;entryX=0.5;entryY=0;entryDx=0;entryDy=0;entryPerimeter=0;" edge="1" parent="WIyWlLk6GJQsqaUBKTNV-1" source="HUk4jSLhMYDcO2J2m5Fl-8" target="HUk4jSLhMYDcO2J2m5Fl-47">
          <mxGeometry relative="1" as="geometry">
            <Array as="points">
              <mxPoint x="644" y="914" />
              <mxPoint x="644" y="859" />
              <mxPoint x="589" y="859" />
            </Array>
          </mxGeometry>
        </mxCell>
        <mxCell id="HUk4jSLhMYDcO2J2m5Fl-53" style="edgeStyle=orthogonalEdgeStyle;rounded=0;orthogonalLoop=1;jettySize=auto;html=1;exitX=0;exitY=0.5;exitDx=0;exitDy=0;entryX=0.5;entryY=0;entryDx=0;entryDy=0;entryPerimeter=0;" edge="1" parent="WIyWlLk6GJQsqaUBKTNV-1" source="HUk4jSLhMYDcO2J2m5Fl-7" target="HUk4jSLhMYDcO2J2m5Fl-49">
          <mxGeometry relative="1" as="geometry">
            <Array as="points">
              <mxPoint x="644" y="944" />
              <mxPoint x="644" y="919" />
              <mxPoint x="589" y="919" />
            </Array>
          </mxGeometry>
        </mxCell>
        <mxCell id="HUk4jSLhMYDcO2J2m5Fl-54" style="edgeStyle=orthogonalEdgeStyle;rounded=0;orthogonalLoop=1;jettySize=auto;html=1;entryX=1;entryY=0.5;entryDx=0;entryDy=0;entryPerimeter=0;" edge="1" parent="WIyWlLk6GJQsqaUBKTNV-1" source="HUk4jSLhMYDcO2J2m5Fl-21" target="HUk4jSLhMYDcO2J2m5Fl-47">
          <mxGeometry relative="1" as="geometry" />
        </mxCell>
        <mxCell id="HUk4jSLhMYDcO2J2m5Fl-55" style="edgeStyle=orthogonalEdgeStyle;rounded=0;orthogonalLoop=1;jettySize=auto;html=1;entryX=0.5;entryY=1;entryDx=0;entryDy=0;entryPerimeter=0;" edge="1" parent="WIyWlLk6GJQsqaUBKTNV-1" source="HUk4jSLhMYDcO2J2m5Fl-22" target="HUk4jSLhMYDcO2J2m5Fl-49">
          <mxGeometry relative="1" as="geometry" />
        </mxCell>
        <mxCell id="HUk4jSLhMYDcO2J2m5Fl-56" style="edgeStyle=orthogonalEdgeStyle;rounded=0;orthogonalLoop=1;jettySize=auto;html=1;entryX=1;entryY=0.5;entryDx=0;entryDy=0;" edge="1" parent="WIyWlLk6GJQsqaUBKTNV-1" source="HUk4jSLhMYDcO2J2m5Fl-19" target="HUk4jSLhMYDcO2J2m5Fl-32">
          <mxGeometry relative="1" as="geometry">
            <Array as="points">
              <mxPoint x="614" y="1064" />
              <mxPoint x="614" y="984" />
            </Array>
          </mxGeometry>
        </mxCell>
        <mxCell id="HUk4jSLhMYDcO2J2m5Fl-57" style="edgeStyle=orthogonalEdgeStyle;rounded=0;orthogonalLoop=1;jettySize=auto;html=1;exitX=0;exitY=0.5;exitDx=0;exitDy=0;entryX=1;entryY=0.5;entryDx=0;entryDy=0;" edge="1" parent="WIyWlLk6GJQsqaUBKTNV-1" source="HUk4jSLhMYDcO2J2m5Fl-20" target="HUk4jSLhMYDcO2J2m5Fl-33">
          <mxGeometry relative="1" as="geometry">
            <Array as="points">
              <mxPoint x="564" y="1094" />
              <mxPoint x="564" y="924" />
            </Array>
          </mxGeometry>
        </mxCell>
        <mxCell id="HUk4jSLhMYDcO2J2m5Fl-59" style="edgeStyle=orthogonalEdgeStyle;rounded=0;orthogonalLoop=1;jettySize=auto;html=1;entryX=0;entryY=0.5;entryDx=0;entryDy=0;" edge="1" parent="WIyWlLk6GJQsqaUBKTNV-1" source="HUk4jSLhMYDcO2J2m5Fl-15" target="HUk4jSLhMYDcO2J2m5Fl-30">
          <mxGeometry relative="1" as="geometry" />
        </mxCell>
        <mxCell id="HUk4jSLhMYDcO2J2m5Fl-60" style="edgeStyle=orthogonalEdgeStyle;rounded=0;orthogonalLoop=1;jettySize=auto;html=1;entryX=0;entryY=0.5;entryDx=0;entryDy=0;" edge="1" parent="WIyWlLk6GJQsqaUBKTNV-1" source="HUk4jSLhMYDcO2J2m5Fl-17" target="HUk4jSLhMYDcO2J2m5Fl-31">
          <mxGeometry relative="1" as="geometry">
            <Array as="points">
              <mxPoint x="234" y="1074" />
              <mxPoint x="234" y="984" />
            </Array>
          </mxGeometry>
        </mxCell>
        <mxCell id="HUk4jSLhMYDcO2J2m5Fl-61" style="edgeStyle=orthogonalEdgeStyle;rounded=0;orthogonalLoop=1;jettySize=auto;html=1;entryX=0;entryY=0.5;entryDx=0;entryDy=0;" edge="1" parent="WIyWlLk6GJQsqaUBKTNV-1" source="HUk4jSLhMYDcO2J2m5Fl-11" target="HUk4jSLhMYDcO2J2m5Fl-29">
          <mxGeometry relative="1" as="geometry">
            <Array as="points">
              <mxPoint x="184" y="964" />
              <mxPoint x="184" y="924" />
            </Array>
          </mxGeometry>
        </mxCell>
        <mxCell id="HUk4jSLhMYDcO2J2m5Fl-64" value="Processor" style="text;html=1;align=center;verticalAlign=middle;whiteSpace=wrap;rounded=0;" vertex="1" parent="WIyWlLk6GJQsqaUBKTNV-1">
          <mxGeometry x="70" y="10" width="60" height="30" as="geometry" />
        </mxCell>
        <mxCell id="HUk4jSLhMYDcO2J2m5Fl-74" style="edgeStyle=orthogonalEdgeStyle;rounded=0;orthogonalLoop=1;jettySize=auto;html=1;exitX=0.5;exitY=1;exitDx=0;exitDy=0;entryX=0.5;entryY=0;entryDx=0;entryDy=0;" edge="1" parent="WIyWlLk6GJQsqaUBKTNV-1" source="HUk4jSLhMYDcO2J2m5Fl-65" target="HUk4jSLhMYDcO2J2m5Fl-66">
          <mxGeometry relative="1" as="geometry" />
        </mxCell>
        <mxCell id="HUk4jSLhMYDcO2J2m5Fl-65" value="Initialize Sensors" style="rounded=0;whiteSpace=wrap;html=1;" vertex="1" parent="WIyWlLk6GJQsqaUBKTNV-1">
          <mxGeometry x="40" y="90" width="120" height="20" as="geometry" />
        </mxCell>
        <mxCell id="HUk4jSLhMYDcO2J2m5Fl-75" style="edgeStyle=orthogonalEdgeStyle;rounded=0;orthogonalLoop=1;jettySize=auto;html=1;exitX=0.5;exitY=1;exitDx=0;exitDy=0;entryX=0.5;entryY=0;entryDx=0;entryDy=0;" edge="1" parent="WIyWlLk6GJQsqaUBKTNV-1" source="HUk4jSLhMYDcO2J2m5Fl-66" target="HUk4jSLhMYDcO2J2m5Fl-67">
          <mxGeometry relative="1" as="geometry" />
        </mxCell>
        <mxCell id="HUk4jSLhMYDcO2J2m5Fl-66" value="Connect to Network" style="rounded=0;whiteSpace=wrap;html=1;" vertex="1" parent="WIyWlLk6GJQsqaUBKTNV-1">
          <mxGeometry x="40" y="130" width="120" height="20" as="geometry" />
        </mxCell>
        <mxCell id="HUk4jSLhMYDcO2J2m5Fl-76" style="edgeStyle=orthogonalEdgeStyle;rounded=0;orthogonalLoop=1;jettySize=auto;html=1;exitX=0.5;exitY=1;exitDx=0;exitDy=0;entryX=0.5;entryY=0;entryDx=0;entryDy=0;" edge="1" parent="WIyWlLk6GJQsqaUBKTNV-1" source="HUk4jSLhMYDcO2J2m5Fl-67" target="HUk4jSLhMYDcO2J2m5Fl-68">
          <mxGeometry relative="1" as="geometry" />
        </mxCell>
        <mxCell id="HUk4jSLhMYDcO2J2m5Fl-67" value="Fetch Sensor Data" style="rounded=0;whiteSpace=wrap;html=1;" vertex="1" parent="WIyWlLk6GJQsqaUBKTNV-1">
          <mxGeometry x="40" y="170" width="120" height="20" as="geometry" />
        </mxCell>
        <mxCell id="HUk4jSLhMYDcO2J2m5Fl-81" style="edgeStyle=orthogonalEdgeStyle;rounded=0;orthogonalLoop=1;jettySize=auto;html=1;exitX=0.5;exitY=1;exitDx=0;exitDy=0;entryX=0.5;entryY=0;entryDx=0;entryDy=0;" edge="1" parent="WIyWlLk6GJQsqaUBKTNV-1" source="HUk4jSLhMYDcO2J2m5Fl-68" target="HUk4jSLhMYDcO2J2m5Fl-79">
          <mxGeometry relative="1" as="geometry" />
        </mxCell>
        <mxCell id="HUk4jSLhMYDcO2J2m5Fl-130" style="edgeStyle=orthogonalEdgeStyle;rounded=0;orthogonalLoop=1;jettySize=auto;html=1;exitX=1;exitY=0.25;exitDx=0;exitDy=0;entryX=1;entryY=0.5;entryDx=0;entryDy=0;" edge="1" parent="WIyWlLk6GJQsqaUBKTNV-1" source="HUk4jSLhMYDcO2J2m5Fl-68" target="HUk4jSLhMYDcO2J2m5Fl-67">
          <mxGeometry relative="1" as="geometry">
            <Array as="points">
              <mxPoint x="190" y="218" />
              <mxPoint x="190" y="180" />
            </Array>
          </mxGeometry>
        </mxCell>
        <mxCell id="HUk4jSLhMYDcO2J2m5Fl-68" value="Transmit Data to Remote Server" style="rounded=0;whiteSpace=wrap;html=1;" vertex="1" parent="WIyWlLk6GJQsqaUBKTNV-1">
          <mxGeometry x="40" y="210" width="120" height="30" as="geometry" />
        </mxCell>
        <mxCell id="HUk4jSLhMYDcO2J2m5Fl-73" style="edgeStyle=orthogonalEdgeStyle;rounded=0;orthogonalLoop=1;jettySize=auto;html=1;exitX=0.5;exitY=1;exitDx=0;exitDy=0;entryX=0.5;entryY=0;entryDx=0;entryDy=0;" edge="1" parent="WIyWlLk6GJQsqaUBKTNV-1" source="HUk4jSLhMYDcO2J2m5Fl-71" target="HUk4jSLhMYDcO2J2m5Fl-65">
          <mxGeometry relative="1" as="geometry" />
        </mxCell>
        <mxCell id="HUk4jSLhMYDcO2J2m5Fl-71" value="Start" style="ellipse;whiteSpace=wrap;html=1;" vertex="1" parent="WIyWlLk6GJQsqaUBKTNV-1">
          <mxGeometry x="40" y="40" width="120" height="30" as="geometry" />
        </mxCell>
        <mxCell id="HUk4jSLhMYDcO2J2m5Fl-72" value="Stop" style="ellipse;whiteSpace=wrap;html=1;" vertex="1" parent="WIyWlLk6GJQsqaUBKTNV-1">
          <mxGeometry x="40" y="310" width="120" height="30" as="geometry" />
        </mxCell>
        <mxCell id="HUk4jSLhMYDcO2J2m5Fl-82" style="edgeStyle=orthogonalEdgeStyle;rounded=0;orthogonalLoop=1;jettySize=auto;html=1;exitX=0.5;exitY=1;exitDx=0;exitDy=0;" edge="1" parent="WIyWlLk6GJQsqaUBKTNV-1" source="HUk4jSLhMYDcO2J2m5Fl-79" target="HUk4jSLhMYDcO2J2m5Fl-72">
          <mxGeometry relative="1" as="geometry" />
        </mxCell>
        <mxCell id="HUk4jSLhMYDcO2J2m5Fl-79" value="Terminate Network Connection" style="rounded=0;whiteSpace=wrap;html=1;" vertex="1" parent="WIyWlLk6GJQsqaUBKTNV-1">
          <mxGeometry x="40" y="260" width="120" height="30" as="geometry" />
        </mxCell>
        <mxCell id="HUk4jSLhMYDcO2J2m5Fl-84" value="Server" style="text;html=1;align=center;verticalAlign=middle;whiteSpace=wrap;rounded=0;" vertex="1" parent="WIyWlLk6GJQsqaUBKTNV-1">
          <mxGeometry x="354" y="10" width="60" height="30" as="geometry" />
        </mxCell>
        <mxCell id="HUk4jSLhMYDcO2J2m5Fl-104" style="edgeStyle=orthogonalEdgeStyle;rounded=0;orthogonalLoop=1;jettySize=auto;html=1;exitX=0.5;exitY=1;exitDx=0;exitDy=0;entryX=0.5;entryY=0;entryDx=0;entryDy=0;" edge="1" parent="WIyWlLk6GJQsqaUBKTNV-1" source="HUk4jSLhMYDcO2J2m5Fl-85" target="HUk4jSLhMYDcO2J2m5Fl-87">
          <mxGeometry relative="1" as="geometry" />
        </mxCell>
        <mxCell id="HUk4jSLhMYDcO2J2m5Fl-85" value="Start" style="ellipse;whiteSpace=wrap;html=1;" vertex="1" parent="WIyWlLk6GJQsqaUBKTNV-1">
          <mxGeometry x="324" y="40" width="120" height="30" as="geometry" />
        </mxCell>
        <mxCell id="HUk4jSLhMYDcO2J2m5Fl-105" style="edgeStyle=orthogonalEdgeStyle;rounded=0;orthogonalLoop=1;jettySize=auto;html=1;exitX=0.5;exitY=1;exitDx=0;exitDy=0;" edge="1" parent="WIyWlLk6GJQsqaUBKTNV-1" source="HUk4jSLhMYDcO2J2m5Fl-87" target="HUk4jSLhMYDcO2J2m5Fl-88">
          <mxGeometry relative="1" as="geometry" />
        </mxCell>
        <mxCell id="HUk4jSLhMYDcO2J2m5Fl-87" value="Initialize Server" style="rounded=0;whiteSpace=wrap;html=1;" vertex="1" parent="WIyWlLk6GJQsqaUBKTNV-1">
          <mxGeometry x="324" y="90" width="120" height="20" as="geometry" />
        </mxCell>
        <mxCell id="HUk4jSLhMYDcO2J2m5Fl-109" style="edgeStyle=orthogonalEdgeStyle;rounded=0;orthogonalLoop=1;jettySize=auto;html=1;exitX=0.5;exitY=1;exitDx=0;exitDy=0;entryX=0.5;entryY=0;entryDx=0;entryDy=0;" edge="1" parent="WIyWlLk6GJQsqaUBKTNV-1" source="HUk4jSLhMYDcO2J2m5Fl-88" target="HUk4jSLhMYDcO2J2m5Fl-89">
          <mxGeometry relative="1" as="geometry" />
        </mxCell>
        <mxCell id="HUk4jSLhMYDcO2J2m5Fl-88" value="Designate API routes" style="rounded=0;whiteSpace=wrap;html=1;" vertex="1" parent="WIyWlLk6GJQsqaUBKTNV-1">
          <mxGeometry x="324" y="125" width="120" height="20" as="geometry" />
        </mxCell>
        <mxCell id="HUk4jSLhMYDcO2J2m5Fl-110" style="edgeStyle=orthogonalEdgeStyle;rounded=0;orthogonalLoop=1;jettySize=auto;html=1;exitX=0.5;exitY=1;exitDx=0;exitDy=0;entryX=0.5;entryY=0;entryDx=0;entryDy=0;" edge="1" parent="WIyWlLk6GJQsqaUBKTNV-1" source="HUk4jSLhMYDcO2J2m5Fl-89" target="HUk4jSLhMYDcO2J2m5Fl-90">
          <mxGeometry relative="1" as="geometry" />
        </mxCell>
        <mxCell id="HUk4jSLhMYDcO2J2m5Fl-89" value="Receive Traffic via API" style="rounded=0;whiteSpace=wrap;html=1;" vertex="1" parent="WIyWlLk6GJQsqaUBKTNV-1">
          <mxGeometry x="324" y="160" width="120" height="40" as="geometry" />
        </mxCell>
        <mxCell id="HUk4jSLhMYDcO2J2m5Fl-111" style="edgeStyle=orthogonalEdgeStyle;rounded=0;orthogonalLoop=1;jettySize=auto;html=1;exitX=0.5;exitY=1;exitDx=0;exitDy=0;entryX=0.5;entryY=0;entryDx=0;entryDy=0;" edge="1" parent="WIyWlLk6GJQsqaUBKTNV-1" source="HUk4jSLhMYDcO2J2m5Fl-90" target="HUk4jSLhMYDcO2J2m5Fl-91">
          <mxGeometry relative="1" as="geometry" />
        </mxCell>
        <mxCell id="HUk4jSLhMYDcO2J2m5Fl-128" style="edgeStyle=orthogonalEdgeStyle;rounded=0;orthogonalLoop=1;jettySize=auto;html=1;exitX=1;exitY=0.5;exitDx=0;exitDy=0;entryX=1;entryY=0.5;entryDx=0;entryDy=0;" edge="1" parent="WIyWlLk6GJQsqaUBKTNV-1" source="HUk4jSLhMYDcO2J2m5Fl-90" target="HUk4jSLhMYDcO2J2m5Fl-89">
          <mxGeometry relative="1" as="geometry">
            <Array as="points">
              <mxPoint x="444" y="230" />
              <mxPoint x="464" y="230" />
              <mxPoint x="464" y="180" />
            </Array>
          </mxGeometry>
        </mxCell>
        <mxCell id="HUk4jSLhMYDcO2J2m5Fl-90" value="Transmit Traffic via WebSockets" style="rounded=0;whiteSpace=wrap;html=1;" vertex="1" parent="WIyWlLk6GJQsqaUBKTNV-1">
          <mxGeometry x="324" y="220" width="120" height="40" as="geometry" />
        </mxCell>
        <mxCell id="HUk4jSLhMYDcO2J2m5Fl-112" style="edgeStyle=orthogonalEdgeStyle;rounded=0;orthogonalLoop=1;jettySize=auto;html=1;exitX=0.5;exitY=1;exitDx=0;exitDy=0;entryX=0.5;entryY=0;entryDx=0;entryDy=0;" edge="1" parent="WIyWlLk6GJQsqaUBKTNV-1" source="HUk4jSLhMYDcO2J2m5Fl-91" target="HUk4jSLhMYDcO2J2m5Fl-94">
          <mxGeometry relative="1" as="geometry" />
        </mxCell>
        <mxCell id="HUk4jSLhMYDcO2J2m5Fl-91" value="End Connection &amp;amp; Server" style="rounded=0;whiteSpace=wrap;html=1;" vertex="1" parent="WIyWlLk6GJQsqaUBKTNV-1">
          <mxGeometry x="324" y="280" width="120" height="40" as="geometry" />
        </mxCell>
        <mxCell id="HUk4jSLhMYDcO2J2m5Fl-94" value="Stop" style="ellipse;whiteSpace=wrap;html=1;" vertex="1" parent="WIyWlLk6GJQsqaUBKTNV-1">
          <mxGeometry x="324" y="340" width="120" height="30" as="geometry" />
        </mxCell>
        <mxCell id="HUk4jSLhMYDcO2J2m5Fl-95" value="Client(s)" style="text;html=1;align=center;verticalAlign=middle;whiteSpace=wrap;rounded=0;" vertex="1" parent="WIyWlLk6GJQsqaUBKTNV-1">
          <mxGeometry x="664" y="10" width="60" height="30" as="geometry" />
        </mxCell>
        <mxCell id="HUk4jSLhMYDcO2J2m5Fl-113" style="edgeStyle=orthogonalEdgeStyle;rounded=0;orthogonalLoop=1;jettySize=auto;html=1;exitX=0.5;exitY=1;exitDx=0;exitDy=0;entryX=0.5;entryY=0;entryDx=0;entryDy=0;" edge="1" parent="WIyWlLk6GJQsqaUBKTNV-1" source="HUk4jSLhMYDcO2J2m5Fl-96" target="HUk4jSLhMYDcO2J2m5Fl-97">
          <mxGeometry relative="1" as="geometry" />
        </mxCell>
        <mxCell id="HUk4jSLhMYDcO2J2m5Fl-96" value="Start" style="ellipse;whiteSpace=wrap;html=1;" vertex="1" parent="WIyWlLk6GJQsqaUBKTNV-1">
          <mxGeometry x="634" y="40" width="120" height="30" as="geometry" />
        </mxCell>
        <mxCell id="HUk4jSLhMYDcO2J2m5Fl-114" style="edgeStyle=orthogonalEdgeStyle;rounded=0;orthogonalLoop=1;jettySize=auto;html=1;exitX=0.5;exitY=1;exitDx=0;exitDy=0;entryX=0.5;entryY=0;entryDx=0;entryDy=0;" edge="1" parent="WIyWlLk6GJQsqaUBKTNV-1" source="HUk4jSLhMYDcO2J2m5Fl-97" target="HUk4jSLhMYDcO2J2m5Fl-98">
          <mxGeometry relative="1" as="geometry" />
        </mxCell>
        <mxCell id="HUk4jSLhMYDcO2J2m5Fl-97" value="Initialize Client" style="rounded=0;whiteSpace=wrap;html=1;" vertex="1" parent="WIyWlLk6GJQsqaUBKTNV-1">
          <mxGeometry x="634" y="90" width="120" height="20" as="geometry" />
        </mxCell>
        <mxCell id="HUk4jSLhMYDcO2J2m5Fl-115" style="edgeStyle=orthogonalEdgeStyle;rounded=0;orthogonalLoop=1;jettySize=auto;html=1;exitX=0.5;exitY=1;exitDx=0;exitDy=0;entryX=0.5;entryY=0;entryDx=0;entryDy=0;" edge="1" parent="WIyWlLk6GJQsqaUBKTNV-1" source="HUk4jSLhMYDcO2J2m5Fl-98" target="HUk4jSLhMYDcO2J2m5Fl-99">
          <mxGeometry relative="1" as="geometry" />
        </mxCell>
        <mxCell id="HUk4jSLhMYDcO2J2m5Fl-98" value="Setup chart and &lt;br&gt;other fields" style="rounded=0;whiteSpace=wrap;html=1;" vertex="1" parent="WIyWlLk6GJQsqaUBKTNV-1">
          <mxGeometry x="634" y="125" width="120" height="30" as="geometry" />
        </mxCell>
        <mxCell id="HUk4jSLhMYDcO2J2m5Fl-116" style="edgeStyle=orthogonalEdgeStyle;rounded=0;orthogonalLoop=1;jettySize=auto;html=1;exitX=0.5;exitY=1;exitDx=0;exitDy=0;entryX=0.5;entryY=0;entryDx=0;entryDy=0;" edge="1" parent="WIyWlLk6GJQsqaUBKTNV-1" source="HUk4jSLhMYDcO2J2m5Fl-99" target="HUk4jSLhMYDcO2J2m5Fl-100">
          <mxGeometry relative="1" as="geometry" />
        </mxCell>
        <mxCell id="HUk4jSLhMYDcO2J2m5Fl-99" value="Receive Data via WebSockets" style="rounded=0;whiteSpace=wrap;html=1;" vertex="1" parent="WIyWlLk6GJQsqaUBKTNV-1">
          <mxGeometry x="634" y="170" width="120" height="40" as="geometry" />
        </mxCell>
        <mxCell id="HUk4jSLhMYDcO2J2m5Fl-118" style="edgeStyle=orthogonalEdgeStyle;rounded=0;orthogonalLoop=1;jettySize=auto;html=1;exitX=0.5;exitY=1;exitDx=0;exitDy=0;entryX=0.5;entryY=0;entryDx=0;entryDy=0;" edge="1" parent="WIyWlLk6GJQsqaUBKTNV-1" source="HUk4jSLhMYDcO2J2m5Fl-100" target="HUk4jSLhMYDcO2J2m5Fl-102">
          <mxGeometry relative="1" as="geometry" />
        </mxCell>
        <mxCell id="HUk4jSLhMYDcO2J2m5Fl-127" style="edgeStyle=orthogonalEdgeStyle;rounded=0;orthogonalLoop=1;jettySize=auto;html=1;exitX=1;exitY=0.5;exitDx=0;exitDy=0;entryX=1;entryY=0.5;entryDx=0;entryDy=0;" edge="1" parent="WIyWlLk6GJQsqaUBKTNV-1" source="HUk4jSLhMYDcO2J2m5Fl-100" target="HUk4jSLhMYDcO2J2m5Fl-99">
          <mxGeometry relative="1" as="geometry" />
        </mxCell>
        <mxCell id="HUk4jSLhMYDcO2J2m5Fl-100" value="Update Graph &amp;amp; Fields" style="rounded=0;whiteSpace=wrap;html=1;" vertex="1" parent="WIyWlLk6GJQsqaUBKTNV-1">
          <mxGeometry x="634" y="230" width="120" height="40" as="geometry" />
        </mxCell>
        <mxCell id="HUk4jSLhMYDcO2J2m5Fl-119" style="edgeStyle=orthogonalEdgeStyle;rounded=0;orthogonalLoop=1;jettySize=auto;html=1;exitX=0.5;exitY=1;exitDx=0;exitDy=0;entryX=0.5;entryY=0;entryDx=0;entryDy=0;" edge="1" parent="WIyWlLk6GJQsqaUBKTNV-1" source="HUk4jSLhMYDcO2J2m5Fl-102" target="HUk4jSLhMYDcO2J2m5Fl-103">
          <mxGeometry relative="1" as="geometry" />
        </mxCell>
        <mxCell id="HUk4jSLhMYDcO2J2m5Fl-102" value="End Session" style="rounded=0;whiteSpace=wrap;html=1;" vertex="1" parent="WIyWlLk6GJQsqaUBKTNV-1">
          <mxGeometry x="634" y="290" width="120" height="20" as="geometry" />
        </mxCell>
        <mxCell id="HUk4jSLhMYDcO2J2m5Fl-103" value="Stop" style="ellipse;whiteSpace=wrap;html=1;" vertex="1" parent="WIyWlLk6GJQsqaUBKTNV-1">
          <mxGeometry x="634" y="330" width="120" height="30" as="geometry" />
        </mxCell>
        <mxCell id="HUk4jSLhMYDcO2J2m5Fl-121" value="" style="curved=1;endArrow=classic;html=1;rounded=0;entryX=0;entryY=0.5;entryDx=0;entryDy=0;exitX=1;exitY=0.75;exitDx=0;exitDy=0;" edge="1" parent="WIyWlLk6GJQsqaUBKTNV-1" source="HUk4jSLhMYDcO2J2m5Fl-68" target="HUk4jSLhMYDcO2J2m5Fl-89">
          <mxGeometry width="50" height="50" relative="1" as="geometry">
            <mxPoint x="210" y="240" as="sourcePoint" />
            <mxPoint x="260" y="190" as="targetPoint" />
            <Array as="points">
              <mxPoint x="260" y="240" />
              <mxPoint x="210" y="190" />
            </Array>
          </mxGeometry>
        </mxCell>
        <mxCell id="HUk4jSLhMYDcO2J2m5Fl-123" value="" style="curved=1;endArrow=classic;html=1;rounded=0;entryX=0;entryY=0.5;entryDx=0;entryDy=0;exitX=1;exitY=0.75;exitDx=0;exitDy=0;" edge="1" parent="WIyWlLk6GJQsqaUBKTNV-1" source="HUk4jSLhMYDcO2J2m5Fl-90" target="HUk4jSLhMYDcO2J2m5Fl-99">
          <mxGeometry width="50" height="50" relative="1" as="geometry">
            <mxPoint x="520" y="250" as="sourcePoint" />
            <mxPoint x="570" y="200" as="targetPoint" />
            <Array as="points">
              <mxPoint x="570" y="250" />
              <mxPoint x="520" y="200" />
            </Array>
          </mxGeometry>
        </mxCell>
      </root>
    </mxGraphModel>
  </diagram>
</mxfile>
